<svg xmlns="http://www.w3.org/2000/svg" viewBox="0 0 512 512" width="512" height="512">
  <path d="M398.8 109.2L243.7 264.3l-64-64-64 64L113.2 256l64-64-64-64L113.2 36.4l285.6 0c6.6 0 11.9 5.3 11.9 11.9 0 6.6-5.3 11.9-11.9 11.9z"/>
  <path d="M398.8 109.2c-6.6-6.6-15.5-10.3-24.8-10.3H113.2c-9.3 0-18.2 3.7-24.8 10.3-6.6 6.6-10.3 15.5-10.3 24.8v285.6c0 9.3 3.7 18.2 10.3 24.8 6.6 6.6 15.5 10.3 24.8 10.3h260.8c9.3 0 18.2-3.7 24.8-10.3 6.6-6.6 10.3-15.5 10.3-24.8v-285.6c0-9.3-3.7-18.2-10.3-24.8zM124.4 416h-24.8v-49.6h24.8v49.6zM124.4 316.8h-24.8v-49.6h24.8v49.6zM124.4 217.6h-24.8v-49.6h24.8v49.6zM172.8 464h-49.6v-24.8h49.6v24.8zM256 464h-49.6v-24.8h49.6v24.8zM339.2 464h-49.6v-24.8h49.6v24.8zM387.6 416h-24.8v-49.6h24.8v49.6zM387.6 316.8h-24.8v-49.6h24.8v49.6zM387.6 217.6h-24.8v-49.6h24.8v49.6z"/>
</svg>